# xmcd
# 
# Track frame offsets:
#     150
#     15327
#     34775
#     49337
#     68160
#     90140
#     110257
#     124890
#     142667
# 
# Disc length: 2244
# 
# Revision: 11
# Processed by: cddbd v1.5.2PL0 Copyright (c) Steve Scherf et al.
# Submitted via: fre:ac v1.0.27
# 
DISCID=6608c209
DTITLE=Ry Cooder - Paradtse and Lunch
DYEAR=2013
DGENRE=Blues
TTITLE0=Tamp 'Em Up Solid
TTITLE1=Tattler
TTITLE2=Married Man's A Fool
TTITLE3=Jesus On The Mainline
TTITLE4=It's All Over Now
TTITLE5=Feelin' Good
TTITLE6=If Walls Could Talk
TTITLE7=Mexican Divorce
TTITLE8=Ditty Wah Ditty
EXTD=
EXTT0=
EXTT1=
EXTT2=
EXTT3=
EXTT4=
EXTT5=
EXTT6=
EXTT7=
EXTT8=
PLAYORDER=
